# xmcd CD database file
#
# Track frame offsets:
#	150
#	22825
#	32057
#	44325
#	59307
#	68845
#	79210
#	93855
#	105847
#	125700
#	136360
#	149982
#	163217
#	172810
#	186022
#	194527
#	205212
#	222032
#
# Disc length: 3218 seconds
#
# Revision: 5
# Processed by: cddbd v1.5.2PL0 Copyright (c) Steve Scherf et al.
# Submitted via: CDex 1.51
#
DISCID=020c9012
DTITLE=Tim O'Brien, Dirk Powell, John Herrmann - Songs From The Mountain
DYEAR=1998
DGENRE=Bluegrass
TTITLE0=Mountain Aire, Washington's March, Bonaparte's Retreat
TTITLE1=Cluck Old Hen
TTITLE2=Raleigh and Spencer
TTITLE3=The Blackest Crow
TTITLE4=Stobrod's Tune
TTITLE5=When I Die I'll Live Again
TTITLE6=The Drunkard's Hiccups (Jack of Diamonds)
TTITLE7=Backstep Cindy
TTITLE8=Wayfarin' Stranger
TTITLE9=Skillet Good and Greasy
TTITLE10=Mole in the Ground
TTITLE11=Claire Deschutes
TTITLE12=Cherokee Trail /Glory in the Meeting House
TTITLE13=Bow Down
TTITLE14=Lonesome John
TTITLE15=Fair Margaret and Sweet William
TTITLE16=Hard Times
TTITLE17=Angel Band
EXTD=YEAR: 1998
EXTT0=
EXTT1=
EXTT2=
EXTT3=
EXTT4=
EXTT5=
EXTT6=
EXTT7=
EXTT8=
EXTT9=
EXTT10=
EXTT11=
EXTT12=
EXTT13=
EXTT14=
EXTT15=
EXTT16=
EXTT17=
PLAYORDER=
